<?xml version="1.0" standalone="no"?>
<!DOCTYPE svg PUBLIC "-//W3C//DTD SVG 20010904//EN"
 "http://www.w3.org/TR/2001/REC-SVG-20010904/DTD/svg10.dtd">
<svg version="1.0" xmlns="http://www.w3.org/2000/svg"
 width="297.000000pt" height="170.000000pt" viewBox="0 0 297.000000 170.000000"
 preserveAspectRatio="xMidYMid meet">

<g transform="translate(0.000000,170.000000) scale(0.100000,-0.100000)"
fill="#000000" stroke="none">
<path d="M576 1015 c-33 -18 -39 -19 -31 -5 4 6 -11 10 -37 10 l-43 0 -34
-162 c-19 -90 -36 -170 -38 -178 -3 -12 5 -15 41 -12 l45 4 11 54 c11 53 12
54 33 39 25 -17 93 -20 134 -4 34 13 80 55 99 91 8 15 14 48 14 73 0 38 -5 52
-29 76 -25 25 -37 29 -83 29 -29 0 -66 -7 -82 -15z m88 -71 c26 -26 20 -69
-15 -98 -35 -29 -74 -33 -107 -10 -31 21 -28 60 7 95 34 33 89 40 115 13z"/>
<path d="M869 1001 c-27 -16 -52 -43 -62 -64 -19 -39 -22 -108 -7 -138 25 -45
125 -64 183 -35 15 8 27 11 27 5 0 -5 19 -9 43 -9 l44 0 22 108 c13 59 25 117
28 130 5 20 2 22 -41 22 -26 0 -46 -5 -46 -11 0 -5 -10 -3 -22 5 -38 27 -117
21 -169 -13z m155 -63 c23 -33 20 -56 -13 -89 -34 -33 -89 -40 -115 -13 -24
23 -20 71 9 99 33 34 97 35 119 3z"/>
<path d="M1419 1023 c-46 -4 -46 -4 -89 -79 -23 -41 -44 -73 -47 -71 -2 3 -9
35 -16 73 l-13 69 -47 3 c-26 2 -47 1 -47 -1 0 -3 13 -60 29 -128 l30 -123
-35 -48 c-18 -26 -34 -49 -34 -51 0 -1 21 -1 46 -1 l46 1 105 164 c98 154 128
202 121 197 -2 -1 -24 -3 -49 -5z"/>
<path d="M1594 1015 c-22 -17 -38 -20 -29 -5 4 6 -11 10 -37 10 l-44 0 -23
-117 c-13 -65 -26 -124 -29 -130 -3 -9 9 -13 42 -13 25 0 46 2 46 4 0 2 7 39
16 82 18 89 35 114 74 114 47 0 54 -20 36 -99 -23 -102 -23 -103 26 -99 l42 3
17 80 c24 107 23 141 -1 165 -24 24 -106 28 -136 5z"/>
<path d="M1875 1013 c-119 -63 -142 -206 -40 -249 121 -50 265 35 265 157 0
33 -6 47 -34 75 -32 32 -38 34 -97 34 -38 -1 -76 -7 -94 -17z m110 -59 c9 -4
21 -18 26 -31 25 -66 -80 -134 -133 -86 -57 52 29 147 107 117z"/>
<path d="M2447 942 l-41 -87 -7 45 c-4 25 -8 62 -8 83 -1 36 -2 37 -40 37 -39
0 -40 -1 -85 -82 l-44 -81 -7 81 -8 82 -45 0 -45 0 6 -37 c4 -21 12 -80 18
-130 l13 -93 43 0 43 0 44 88 44 87 6 -55 c3 -30 7 -68 8 -85 3 -28 5 -30 47
-30 48 0 36 -15 155 198 l35 62 -45 2 -46 2 -41 -87z"/>
</g>
</svg>
